# xmcd CD database file
#
# Track frame offsets:
#	187
#	30385
#	48682
#	70260
#	81895
#	102677
#	119590
#	147835
#
# Disc length: 2216 seconds
#
# Revision: 0
# Processed by: cddbd v1.4PL0 Copyright (c) Steve Scherf et al.
# Submitted via: CDex 1.50
#
DISCID=7308a608
DTITLE=Curtis Counce - Exploring The Future
DYEAR=1958
DGENRE=Jazz
TTITLE0=So Nice
TTITLE1=Angel Eyes
TTITLE2=Into the Orbit
TTITLE3=Move
TTITLE4=Race for Space
TTITLE5=Someone to Watch Over Me
TTITLE6=Exploring The Future
TTITLE7=The Countdown
EXTD=YEAR: 1958
EXTT0=
EXTT1=
EXTT2=
EXTT3=
EXTT4=
EXTT5=
EXTT6=
EXTT7=
PLAYORDER=
